# Blender v2.80 (sub 75) OBJ File: 'base-square-2.obj.blend'
# www.blender.org
mtllib base-square-4.mtl
o Plane_Plane.001
v -0.820011 0.239952 1.307644
v 1.179989 0.239952 1.307644
v -0.820011 0.239952 -0.692356
v 1.179989 0.239952 -0.692356
v 0.922759 0.239952 -0.455227
v 0.920600 0.239952 1.097003
v -0.685137 0.239952 1.088312
v -0.683781 0.239952 -0.427519
v -0.820011 0.153733 -0.692356
v -0.820011 0.153733 1.307644
v 1.179989 0.153733 -0.692356
v -0.685137 0.153733 1.088312
v -0.683781 0.153733 -0.427519
v 0.922759 0.153733 -0.455227
v -0.820011 0.152972 -0.692356
v -0.820011 0.152972 1.307644
v 1.179989 0.152972 -0.692356
v -0.685137 0.152972 1.088312
v -0.683781 0.152972 -0.427519
v 0.922759 0.152972 -0.455227
v -0.820011 0.247876 -0.692356
v -0.820011 0.247876 1.307644
v 1.179989 0.247876 -0.692356
v -0.685137 0.247876 1.088312
v -0.683781 0.247876 -0.427519
v 0.922759 0.247876 -0.455227
vt 1.000000 0.000000
vt 0.871385 0.881436
vt 0.870306 0.105320
vt 0.067437 0.109666
vt 0.000000 0.000000
vt 0.000000 0.000000
vt 0.000000 0.000000
vt 0.000000 0.000000
vt 0.000000 0.000000
vt 0.000000 0.000000
vt 0.000000 0.000000
vt 0.000000 0.000000
vt 0.000000 0.000000
vt 1.000000 1.000000
vt 0.871385 0.881436
vt 0.000000 0.000000
vt 0.000000 0.000000
vt 0.000000 0.000000
vt 0.000000 0.000000
vt 0.000000 0.000000
vt 0.000000 0.000000
vt 1.000000 1.000000
vt 0.871385 0.881436
vt 0.000000 0.000000
vt 0.000000 0.000000
vt 0.067437 0.109666
vt 0.000000 0.000000
vt 0.000000 0.000000
vt 0.067437 0.109666
vt 0.068115 0.867581
vt 0.067437 0.109666
vt 0.000000 0.000000
vt 0.000000 0.000000
vt 1.000000 1.000000
vt 0.871385 0.881436
vt 0.000000 0.000000
vt 0.000000 0.000000
vt 0.000000 1.000000
vt 1.000000 1.000000
vt 0.000000 0.000000
vn 0.0000 1.0000 -0.0000
vn -0.8518 0.0000 -0.5238
vn -1.0000 0.0000 -0.0009
vn 1.0000 0.0000 0.0000
vn -0.6778 0.0000 -0.7353
vn -0.0172 0.0000 -0.9999
vn 0.0000 0.0000 1.0000
vn 0.0000 0.0000 -1.0000
vn -0.6778 0.0000 -0.7352
vn 0.8518 0.0000 0.5238
vn 1.0000 0.0000 0.0009
vn -1.0000 0.0000 0.0000
vn 0.6778 0.0000 0.7353
vn 0.0172 0.0000 0.9999
usemtl None
s off
f 2/1/1 5/2/1 6/3/1
f 7/4/2 10/5/2 1/6/2
f 13/7/3 18/8/3 12/9/3
f 8/10/3 12/9/3 7/11/3
f 1/6/4 9/12/4 3/13/4
f 4/14/5 14/15/5 5/2/5
f 5/16/6 13/7/6 8/10/6
f 3/13/7 11/17/7 4/18/7
f 15/19/8 23/20/8 17/21/8
f 10/5/4 15/19/4 9/12/4
f 11/22/9 20/23/9 14/15/9
f 14/24/6 19/25/6 13/7/6
f 9/12/7 17/21/7 11/17/7
f 12/26/2 16/27/2 10/5/2
f 22/28/1 24/29/1 25/30/1
f 18/31/10 22/28/10 16/27/10
f 19/25/11 24/32/11 18/8/11
f 16/27/12 21/33/12 15/19/12
f 17/34/13 26/35/13 20/23/13
f 20/36/14 25/37/14 19/25/14
f 7/4/1 1/6/1 6/3/1
f 1/6/1 2/1/1 6/3/1
f 2/1/1 4/14/1 5/2/1
f 7/4/2 12/26/2 10/5/2
f 13/7/3 19/25/3 18/8/3
f 8/10/3 13/7/3 12/9/3
f 1/6/4 10/5/4 9/12/4
f 4/14/5 11/22/5 14/15/5
f 5/16/6 14/24/6 13/7/6
f 3/13/7 9/12/7 11/17/7
f 15/19/8 21/33/8 23/20/8
f 10/5/4 16/27/4 15/19/4
f 11/22/5 17/34/5 20/23/5
f 14/24/6 20/36/6 19/25/6
f 9/12/7 15/19/7 17/21/7
f 12/26/2 18/31/2 16/27/2
f 25/30/1 26/35/1 21/38/1
f 26/35/1 23/39/1 21/38/1
f 21/38/1 22/28/1 25/30/1
f 18/31/10 24/29/10 22/28/10
f 19/25/11 25/37/11 24/32/11
f 16/27/12 22/28/12 21/33/12
f 17/34/13 23/39/13 26/35/13
f 20/36/14 26/40/14 25/37/14
o Plane.001_Plane.002
v -0.810832 0.148235 1.298729
v 1.189168 0.148235 1.298729
v -0.810832 0.148235 -0.701271
v 1.189168 0.148235 -0.701271
v 0.931939 0.148235 -0.464143
v 0.929780 0.148235 1.088089
v -0.675957 0.148235 1.079397
v -0.674602 0.148235 -0.436434
v -0.810832 0.243452 1.298729
v 1.189168 0.243452 1.298729
v 1.189168 0.243452 -0.701271
v 0.931939 0.243452 -0.464143
v 0.929780 0.243452 1.088089
v -0.675957 0.243452 1.079397
v -0.810832 0.152994 1.298729
v 1.189168 0.152994 1.298729
v 1.189168 0.152994 -0.701271
v 0.931939 0.152994 -0.464143
v 0.929780 0.152994 1.088089
v -0.675957 0.152994 1.079397
vt 0.000000 0.000000
vt 0.067437 0.109666
vt 0.067437 0.109666
vt 0.068115 0.867581
vt 0.871385 0.881436
vt 1.000000 1.000000
vt 1.000000 1.000000
vt 0.000000 0.000000
vt 0.000000 0.000000
vt 0.000000 0.000000
vt 0.000000 0.000000
vt 0.000000 0.000000
vt 0.000000 0.000000
vt 0.871385 0.881436
vt 1.000000 1.000000
vt 0.000000 0.000000
vt 0.000000 0.000000
vt 0.000000 0.000000
vt 1.000000 0.000000
vt 0.871385 0.881436
vt 0.870306 0.105320
vt 0.000000 0.000000
vt 0.000000 0.000000
vt 0.000000 0.000000
vt 0.000000 0.000000
vt 0.067437 0.109666
vt 0.000000 0.000000
vt 0.000000 0.000000
vt 0.000000 1.000000
vt 0.000000 0.000000
vt 0.000000 0.000000
vn -0.8518 0.0000 -0.5238
vn 0.0000 1.0000 -0.0000
vn 0.6778 0.0000 0.7353
vn -1.0000 0.0000 -0.0014
vn 1.0000 0.0000 0.0000
vn -0.6778 0.0000 -0.7353
vn 0.0054 0.0000 -1.0000
vn 0.0000 0.0000 1.0000
vn -0.0054 0.0000 1.0000
vn -1.0000 0.0000 0.0000
vn 0.8518 0.0000 0.5238
vn 1.0000 0.0000 0.0014
vn 0.0000 0.0000 -1.0000
usemtl None
s off
f 27/41/15 40/42/15 33/43/15
f 27/41/16 33/43/16 34/44/16
f 38/45/17 43/46/17 37/47/17
f 32/48/18 38/49/18 31/50/18
f 30/51/19 36/52/19 28/53/19
f 31/54/20 37/47/20 30/55/20
f 33/56/21 39/57/21 32/48/21
f 28/53/22 35/58/22 27/41/22
f 42/59/16 44/60/16 45/61/16
f 40/62/23 45/63/23 39/57/23
f 37/64/24 42/65/24 36/52/24
f 35/58/25 46/66/25 40/42/25
f 39/57/26 44/67/26 38/49/26
f 36/52/27 41/68/27 35/58/27
f 27/41/15 35/58/15 40/42/15
f 34/44/16 31/54/16 29/69/16
f 31/54/16 30/55/16 29/69/16
f 29/69/16 27/41/16 34/44/16
f 38/45/17 44/60/17 43/46/17
f 32/48/18 39/57/18 38/49/18
f 30/51/19 37/64/19 36/52/19
f 31/54/20 38/45/20 37/47/20
f 33/56/21 40/62/21 39/57/21
f 28/53/22 36/52/22 35/58/22
f 46/66/16 41/68/16 45/61/16
f 41/68/16 42/59/16 45/61/16
f 42/59/16 43/46/16 44/60/16
f 40/62/23 46/70/23 45/63/23
f 37/64/24 43/71/24 42/65/24
f 35/58/25 41/68/25 46/66/25
f 39/57/26 45/63/26 44/67/26
f 36/52/27 42/65/27 41/68/27
