# Blender v2.80 (sub 75) OBJ File: 'triangle-thing.blend'
# www.blender.org
mtllib tri-new-2.mtl
o Plane
v -1.203611 0.000000 0.000000
v 1.203611 0.000000 1.203611
v -1.203611 0.000000 0.000000
v 1.203611 0.000000 -1.203611
v 1.038362 0.000000 0.920231
v -0.910248 0.000000 -0.015354
v 1.002611 0.000000 -0.924842
v -1.203611 0.205407 0.000000
v -1.203611 0.205407 0.000000
v 1.203611 0.205407 1.203611
v 1.203611 0.205407 -1.203611
v 1.038362 0.205407 0.920231
v -0.910248 0.205407 -0.015354
v 1.002611 0.205407 -0.924842
vt 0.000000 0.000000
vt 0.121868 0.557617
vt 0.931353 0.096985
vt 1.000000 0.000000
vt 0.916501 0.911617
vt 0.000000 1.000000
vt 1.000000 1.000000
vt 0.000000 0.000000
vt 1.000000 0.000000
vt 0.931353 0.096985
vt 0.121868 0.557617
vt 0.916501 0.911617
vt 1.000000 1.000000
vt 0.000000 1.000000
vn 0.0000 -1.0000 0.0000
vn 0.0000 1.0000 0.0000
vn -0.4472 0.0000 0.8944
vn -0.9998 0.0000 0.0194
vn 0.4328 0.0000 -0.9015
vn 1.0000 0.0000 0.0000
vn 0.0000 0.0000 1.0000
vn 0.4294 0.0000 0.9031
vn -0.4472 0.0000 -0.8944
usemtl Black
s off
f 1/1/1 6/2/1 5/3/1 2/4/1
f 7/5/1 6/2/1 1/1/1 3/6/1 4/7/1 2/4/1 5/3/1
f 9/8/2 10/9/2 12/10/2 13/11/2
f 14/12/2 12/10/2 10/9/2 11/13/2 8/14/2 9/8/2 13/11/2
f 1/1/3 2/4/3 10/9/3 9/8/3
f 7/5/4 5/3/4 12/10/4 14/12/4
f 5/3/5 6/2/5 13/11/5 12/10/5
f 2/4/6 4/7/6 11/13/6 10/9/6
f 3/6/7 1/1/7 9/8/7 8/14/7
f 6/2/8 7/5/8 14/12/8 13/11/8
f 4/7/9 3/6/9 8/14/9 11/13/9
